# xmcd
#
# Track frame offsets:
#	150
#	17455
#	34370
#	54145
#	68765
#	85070
#	105365
#	116782
#	135680
#	157490
#	172517
#	189975
#
# Disc length: 2726
#
# Revision: 3
# Processed by: cddbd v1.5.1PL0 Copyright (c) Steve Scherf et al.
# Submitted via: CDValet v3.31 - Copyright (c) 1997 Greg Leichner
# Normalized: r1:DSETVAR1;r2:TSWAP
#
DISCID=900aa40c
DTITLE=Various Artist - Young Country: Country Dynamite
DYEAR=1900
DGENRE=
TTITLE0=The Mavericks - What A Crying Shame
TTITLE1=McBride and The Ride - Just One Night
TTITLE2=Gibson/Miller Band - Texas Tattoo
TTITLE3=Shenandoah - Janie Baker's Love Slave
TTITLE4=Brother Phelps - Let Go
TTITLE5=Restless Heart - Big Iron Horse
TTITLE6=Sawyer Brown - Trouble On The Line
TTITLE7=Confederate Railroad - When You Leave That Way You Can Never Go Back
TTITLE8=Diamond Rio - Sawmill Road
TTITLE9=Pirates Of The Mississippi - Till I'm Holding You Again
TTITLE10=The Desert Rose Band - Missing You
TTITLE11=Highwayman - Silver Stallion
EXTD=
EXTT0=
EXTT1=
EXTT2=
EXTT3=
EXTT4=
EXTT5=
EXTT6=
EXTT7=
EXTT8=
EXTT9=
EXTT10=
EXTT11=
PLAYORDER=
